<?xml version="1.0" standalone="no"?>
<!DOCTYPE svg PUBLIC "-//W3C//DTD SVG 20010904//EN"
 "http://www.w3.org/TR/2001/REC-SVG-20010904/DTD/svg10.dtd">
<svg version="1.0" xmlns="http://www.w3.org/2000/svg"
 width="507.000000pt" height="493.000000pt" viewBox="0 0 507.000000 493.000000"
 preserveAspectRatio="xMidYMid meet">

<g transform="translate(0.000000,493.000000) scale(0.100000,-0.100000)"
fill="#000000" stroke="none">
<path d="M2315 4639 c-419 -32 -828 -194 -1172 -466 -101 -80 -291 -274 -372
-381 -378 -499 -520 -1129 -396 -1749 131 -648 576 -1221 1173 -1510 185 -89
372 -149 587 -188 117 -22 458 -31 590 -17 958 105 1736 837 1900 1787 79 461
-4 983 -221 1382 -363 668 -1005 1086 -1759 1143 -144 11 -171 11 -330 -1z
m415 -99 c372 -46 729 -190 1013 -408 419 -321 690 -764 788 -1287 26 -139 37
-448 20 -591 -45 -382 -186 -733 -417 -1034 -78 -103 -282 -308 -379 -382
-272 -207 -585 -342 -940 -404 -157 -28 -511 -26 -670 4 -587 111 -1058 419
-1378 902 -303 456 -411 1014 -302 1555 138 687 620 1258 1281 1518 149 58
389 118 529 130 93 8 377 6 455 -3z"/>
<path d="M1495 2921 c-92 -24 -145 -72 -166 -152 -15 -54 -6 -105 24 -150 25
-38 55 -55 177 -102 63 -24 88 -39 99 -59 14 -25 14 -29 -5 -55 -43 -57 -144
-48 -286 25 -5 2 -8 -28 -8 -66 l0 -70 43 -17 c55 -23 230 -32 281 -15 84 28
136 102 136 197 0 101 -39 141 -182 189 -94 31 -128 56 -128 93 0 40 32 64 93
69 44 3 62 -1 120 -30 l67 -35 0 73 0 72 -47 17 c-55 19 -174 28 -218 16z"/>
<path d="M2092 2883 c-6 -16 -60 -160 -121 -321 -61 -161 -111 -295 -111 -298
0 -3 32 -4 72 -2 l71 3 22 65 22 65 125 3 125 3 24 -68 24 -68 78 -3 c62 -2
78 0 75 10 -2 8 -52 154 -113 326 l-110 312 -87 0 c-85 0 -86 0 -96 -27z m127
-246 c22 -63 37 -118 33 -121 -9 -10 -150 -7 -156 3 -4 7 37 142 69 230 8 21
12 13 54 -112z"/>
<path d="M2590 2585 l0 -325 225 0 225 0 0 60 0 60 -145 0 -145 0 0 75 0 75
125 0 125 0 0 60 0 60 -125 0 -126 0 3 73 3 72 143 3 142 3 0 54 0 55 -225 0
-225 0 0 -325z"/>
<path d="M3180 2585 l0 -325 70 0 70 0 0 213 c0 118 3 216 6 220 4 3 45 -47
92 -111 46 -64 88 -120 91 -124 4 -4 49 49 101 119 l95 127 3 -222 2 -222 75
0 75 0 0 325 0 325 -77 -1 -78 0 -90 -124 c-49 -69 -92 -125 -95 -125 -3 0
-45 57 -93 125 l-89 125 -79 0 -79 0 0 -325z"/>
</g>
</svg>
